<svg width="172" height="46" viewBox="0 0 172 46" fill="none" xmlns="http://www.w3.org/2000/svg">
<path d="M20.1377 28.4231C20.2217 26.957 19.9814 25.4904 19.433 24.1237C18.8847 22.7571 18.0414 21.5226 16.9609 20.5048C14.4003 18.4585 11.1421 17.4409 7.84488 17.6576H0V39.4042H1.75947C2.17859 39.4086 2.59447 39.3314 2.98281 39.1769C3.37115 39.0224 3.72423 38.7939 4.02149 38.5044C4.31875 38.215 4.55424 37.8705 4.71425 37.4911C4.87427 37.1116 4.95569 36.7047 4.95361 36.2941V34.8402V21.888H7.71764C9.74445 21.7264 11.7556 22.346 13.3231 23.6148C13.9595 24.2674 14.4511 25.042 14.767 25.8898C15.0828 26.7376 15.2161 27.6403 15.1583 28.541C15.2214 29.4354 15.0913 30.3327 14.7765 31.1745C14.4618 32.0164 13.9695 32.7838 13.3317 33.4268C13.299 33.4571 13.2612 33.4823 13.2268 33.5126C11.7833 34.6508 9.95754 35.2192 8.10806 35.1064H5.52806V35.6304C5.59658 36.6332 6.05446 37.5722 6.80777 38.2547C7.56109 38.9371 8.5526 39.311 9.57863 39.2997C9.70935 39.2997 9.83488 39.2997 9.96044 39.2828C10.0206 39.2828 10.0757 39.2694 10.1325 39.2627C12.6937 39.1098 15.1276 38.1163 17.0417 36.4424C18.0948 35.3873 18.9136 34.1302 19.4464 32.7501C19.9792 31.3699 20.2145 29.8967 20.1377 28.4231Z" fill="black"/>
<path d="M38.0257 20.5347C37.5556 20.0839 37.26 19.4871 37.1895 18.8464C37.1189 18.2057 37.2779 17.5609 37.6391 17.0223C38.0003 16.4837 38.5413 16.0847 39.1696 15.8936C39.7979 15.7025 40.4745 15.7312 41.0836 15.9747C41.6927 16.2182 42.1966 16.6614 42.5089 17.2286C42.8213 17.7957 42.9227 18.4516 42.7959 19.0839C42.6692 19.7162 42.3221 20.2857 41.814 20.6951C41.306 21.1045 40.6685 21.3284 40.0106 21.3282C39.6419 21.3358 39.2756 21.2692 38.9342 21.1328C38.5928 20.9963 38.2837 20.7928 38.0257 20.5347Z" fill="black"/>
<path d="M42.3893 22.666H37.6249V39.4039H42.3893V22.666Z" fill="black"/>
<path d="M49.032 39.4041H44.2693V16.3232H49.032V39.4041Z" fill="black"/>
<path d="M53.8961 46.0004C52.1156 45.9572 50.4205 45.2442 49.1626 44.0091L51.3229 40.5553C51.638 40.898 52.0193 41.1764 52.4446 41.3741C52.87 41.5719 53.3311 41.6853 53.8014 41.7077C54.0308 41.7021 54.2553 41.6407 54.4546 41.5293C54.6539 41.4179 54.8219 41.2598 54.9435 41.0692C55.2474 40.6824 55.4147 40.2094 55.42 39.7214C55.42 39.244 53.2178 33.5609 48.8135 22.6719H53.8961L58.0568 33.0953L62.2174 22.6719H67.2914L59.3502 42.3968C58.9272 43.4848 58.1662 44.4152 57.1744 45.0569C56.2014 45.683 55.0602 46.0114 53.8961 46.0004Z" fill="black"/>
<path d="M72.7784 21.9974C72.5478 22.1789 72.3632 22.4103 72.2391 22.6734C72.115 22.9364 72.0546 23.224 72.0628 23.5137C72.0578 23.8197 72.136 24.1214 72.2896 24.3879C72.4432 24.6544 72.6665 24.8761 72.9366 25.03C74.2152 25.6454 75.5724 26.0902 76.9717 26.3524C78.7723 26.7141 80.4563 27.4987 81.8789 28.6386C82.4837 29.2107 82.9535 29.9053 83.2553 30.6739C83.5572 31.4425 83.6839 32.2664 83.6264 33.088C83.653 33.9942 83.4649 34.8941 83.077 35.7172C82.689 36.5403 82.1118 37.2642 81.3904 37.8323C79.7103 39.1072 77.6207 39.753 75.4977 39.6535C71.9439 39.6387 68.5366 38.2652 66.0016 35.8257L68.9548 32.2793C70.7177 34.0545 73.0749 35.1479 75.5941 35.359C76.3541 35.4017 77.1074 35.1994 77.7388 34.7829C77.9882 34.6055 78.1895 34.371 78.3253 34.1C78.4611 33.829 78.5272 33.5296 78.518 33.2278C78.5256 32.9214 78.454 32.6181 78.3096 32.3462C78.1652 32.0743 77.9529 31.8427 77.6924 31.6729C76.6745 31.1139 75.5708 30.7202 74.4244 30.507C72.3799 30.1399 70.4424 29.3382 68.7484 28.1585C68.1149 27.5845 67.6238 26.8762 67.3126 26.0879C67.0013 25.2995 66.8782 24.4518 66.9527 23.6097C66.9049 22.6929 67.0869 21.7785 67.4826 20.9463C67.8784 20.114 68.4758 19.3893 69.2231 18.8352C70.8711 17.6709 72.8684 17.0781 74.8991 17.1505C76.4137 17.1559 77.9169 17.4081 79.347 17.8968C80.7624 18.3587 82.0769 19.0764 83.2223 20.0128L80.7127 23.5609C79.0228 22.213 76.9214 21.4569 74.7426 21.4128C74.0379 21.3744 73.3421 21.5815 72.7784 21.9974Z" fill="black"/>
<path d="M101.738 31.0356C101.763 32.1762 101.546 33.3097 101.102 34.3644C100.658 35.4192 99.9962 36.3725 99.1579 37.1647C97.402 38.7649 95.0926 39.6544 92.6942 39.6544C90.2958 39.6544 87.9863 38.7649 86.2304 37.1647C84.582 35.5303 83.6577 33.3255 83.6577 31.0281C83.6577 28.7307 84.582 26.5258 86.2304 24.8914C87.9817 23.2823 90.2929 22.3867 92.6942 22.3867C95.0954 22.3867 97.4066 23.2823 99.1579 24.8914C99.9956 25.6872 100.657 26.6434 101.101 27.7005C101.545 28.7575 101.762 29.8928 101.738 31.0356ZM88.4612 31.0356C88.4084 32.2582 88.8342 33.4544 89.6515 34.3799C90.043 34.7875 90.5155 35.1124 91.04 35.3344C91.5644 35.5565 92.1297 35.6711 92.7011 35.6711C93.2725 35.6711 93.8377 35.5565 94.3622 35.3344C94.8867 35.1124 95.3592 34.7875 95.7507 34.3799C96.5681 33.4545 96.9938 32.2582 96.9408 31.0356C96.9917 29.8087 96.5665 28.6085 95.7507 27.6763C95.3619 27.2642 94.8903 26.9353 94.3654 26.7103C93.8406 26.4854 93.2739 26.3694 92.7011 26.3694C92.1282 26.3694 91.5615 26.4854 91.0367 26.7103C90.5119 26.9353 90.0403 27.2642 89.6515 27.6763C88.8356 28.6085 88.4104 29.8087 88.4612 31.0356Z" fill="black"/>
<path d="M110.888 35.5158C111.739 35.4812 112.57 35.2522 113.315 34.8471C114.059 34.4419 114.697 33.8719 115.176 33.1825L118.002 36.2924C117.115 37.3081 116.021 38.1316 114.79 38.7102C113.56 39.2889 112.22 39.6102 110.856 39.6536C108.458 39.7134 106.13 38.86 104.361 37.273C103.518 36.4566 102.85 35.484 102.394 34.412C101.939 33.34 101.706 32.1899 101.709 31.0289C101.712 29.8678 101.951 28.7189 102.411 27.6491C102.872 26.5793 103.545 25.6099 104.392 24.7975C106.115 23.2172 108.396 22.353 110.756 22.3867C112.038 22.3973 113.305 22.6507 114.488 23.133C115.744 23.6281 116.876 24.382 117.808 25.3434L115.331 28.5174C114.788 27.8959 114.116 27.3944 113.36 27.0459C112.605 26.6974 111.782 26.5099 110.947 26.4957C109.755 26.4751 108.601 26.9041 107.724 27.6936C107.265 28.1193 106.907 28.6375 106.674 29.2124C106.441 29.7873 106.338 30.405 106.373 31.0226C106.337 31.6378 106.44 32.2533 106.673 32.8256C106.906 33.3979 107.265 33.9131 107.724 34.3348C108.586 35.1095 109.718 35.5319 110.888 35.5158Z" fill="black"/>
<path d="M118.972 20.5352C118.503 20.0846 118.207 19.4882 118.137 18.8479C118.067 18.2077 118.226 17.5633 118.587 17.0251C118.948 16.4869 119.488 16.0883 120.116 15.8974C120.744 15.7065 121.42 15.7351 122.029 15.9784C122.638 16.2218 123.141 16.6647 123.453 17.2315C123.765 17.7982 123.867 18.4536 123.74 19.0855C123.614 19.7174 123.267 20.2866 122.759 20.6958C122.252 21.1049 121.615 21.3287 120.957 21.3288C120.589 21.3365 120.222 21.2701 119.881 21.1336C119.539 20.9971 119.23 20.7935 118.972 20.5352ZM123.339 39.4042H118.575V22.6664H123.339V39.4042Z" fill="black"/>
<path d="M146.262 39.4041H141.497V16.3232H146.262V39.4041Z" fill="black"/>
<path d="M137.791 23.9117C136.324 22.8507 134.53 22.3155 132.708 22.3955C129.949 22.3577 127.251 23.1984 125.022 24.7912L127.149 27.8086C127.859 27.2935 128.647 26.8894 129.483 26.6108C130.322 26.3047 131.208 26.1417 132.103 26.1289C134.03 26.1289 134.994 27.0207 134.994 28.8043V28.8969H131.437C129.609 28.8 127.794 29.2444 126.227 30.1722C125.598 30.5974 125.092 31.1747 124.758 31.8481C124.424 32.5215 124.274 33.268 124.322 34.0151C124.291 34.7915 124.44 35.5646 124.76 36.2759C125.079 36.9872 125.559 37.6181 126.164 38.1208C127.439 39.1642 129.061 39.7122 130.722 39.6607C131.6 39.6631 132.466 39.463 133.251 39.0767C134.036 38.6904 134.716 38.1286 135.238 37.4368L135.28 37.388V37.5666C135.467 38.1086 135.825 38.5788 136.301 38.9098C136.778 39.2408 137.349 39.4158 137.934 39.4097H139.76V28.7386C139.84 27.8392 139.704 26.9341 139.362 26.0958C139.02 25.2575 138.482 24.5095 137.791 23.9117ZM134.963 33.0262C134.977 33.4167 134.897 33.8049 134.728 34.1592C134.56 34.5134 134.309 34.8237 133.995 35.0648C133.364 35.5679 132.572 35.8379 131.759 35.8279C131.072 35.8704 130.389 35.7021 129.805 35.3461C129.581 35.1907 129.4 34.9822 129.279 34.7401C129.159 34.4981 129.103 34.2301 129.117 33.9612C129.117 32.7999 130.07 32.2192 131.976 32.2192H134.961L134.963 33.0262Z" fill="black"/>
<path d="M33.9046 23.9108C32.438 22.8494 30.6435 22.3142 28.8219 22.3946C26.0624 22.3565 23.3649 23.1972 21.1353 24.7903L23.2629 27.8077C23.9728 27.2923 24.7602 26.8881 25.5969 26.6099C26.4355 26.3036 27.3216 26.1406 28.2165 26.128C30.1429 26.128 31.1061 27.0198 31.1061 28.8034V28.896H27.5491C25.7212 28.7991 23.9058 29.2435 22.3393 30.1713C21.7105 30.5967 21.2046 31.1741 20.8707 31.8474C20.5368 32.5207 20.3862 33.2671 20.4336 34.0142C20.4029 34.7905 20.5528 35.5636 20.872 36.2749C21.1911 36.9861 21.6711 37.617 22.2757 38.1199C23.5508 39.1633 25.173 39.7113 26.8337 39.6598C27.719 39.6619 28.5922 39.4587 29.382 39.067C30.1718 38.6752 30.8557 38.1058 31.3779 37.4056C31.3779 37.4275 31.3865 37.4477 31.3934 37.4679C31.5649 38.0334 31.9196 38.5288 32.404 38.8793C32.8884 39.2298 33.4761 39.4162 34.0783 39.4104H35.8705V28.7393C35.9511 27.84 35.8151 26.9347 35.4737 26.0961C35.1323 25.2576 34.5948 24.5091 33.9046 23.9108ZM31.0769 33.0253C31.091 33.4158 31.0106 33.804 30.8423 34.1583C30.674 34.5125 30.4226 34.8229 30.1086 35.0639C29.4776 35.5671 28.6862 35.8371 27.8726 35.827C27.1859 35.8698 26.5027 35.7014 25.9186 35.3452C25.6943 35.1897 25.5136 34.9812 25.3934 34.7391C25.2731 34.4971 25.2172 34.2292 25.2307 33.9603C25.2307 32.799 26.1835 32.2183 28.0893 32.2183H31.0734L31.0769 33.0253Z" fill="black"/>
<path d="M168.214 19.0931H168.185H168.156C167.924 19.0951 167.695 19.0514 167.481 18.9645C167.268 18.8777 167.074 18.7495 166.912 18.5877C166.875 18.5491 166.839 18.5086 166.806 18.4663C165.877 19.0031 164.814 19.2761 163.735 19.2548C163.635 19.2548 163.535 19.2548 163.438 19.2548C162.536 19.2313 161.652 19.0004 160.858 18.5809C160.407 18.3374 159.993 18.0335 159.628 17.6778C159.097 17.1744 158.677 16.5689 158.396 15.8992C158.115 15.2295 157.978 14.5101 157.994 13.7861C157.973 12.6718 158.31 11.5792 158.957 10.6626C159.157 10.3836 159.382 10.1226 159.63 9.88264C160.168 9.35778 160.809 8.94589 161.515 8.67215C162.221 8.39841 162.977 8.26855 163.735 8.29055C163.931 8.29055 164.121 8.29051 164.308 8.3141C165.046 8.36563 165.766 8.55793 166.429 8.88017V4.29774H169.484V18.2069C170.841 16.5511 171.69 14.551 171.931 12.4404C172.172 10.3297 171.795 8.19559 170.844 6.28705C169.892 4.37851 168.407 2.7744 166.559 1.66205C164.712 0.549698 162.58 -0.0250417 160.412 0.00502857C158.244 0.0350989 156.13 0.668686 154.316 1.83182C152.501 2.99495 151.063 4.63969 150.167 6.57384C149.271 8.50799 148.956 10.6518 149.258 12.7549C149.559 14.8581 150.466 16.8337 151.871 18.4512L153.268 11.5875H157.519L155.552 21.2579C157.694 22.2845 160.111 22.6288 162.464 22.2424C164.816 21.856 166.987 20.7582 168.67 19.1031L168.214 19.0931ZM156.016 10.3527C155.476 10.3479 154.953 10.1601 154.538 9.82105C154.123 9.48204 153.84 9.01274 153.738 8.49282C153.636 7.97289 153.721 7.43437 153.978 6.9687C154.235 6.50303 154.649 6.13894 155.149 5.93816C155.649 5.73738 156.205 5.71228 156.722 5.8672C157.239 6.02213 157.685 6.34758 157.985 6.78813C158.285 7.22869 158.42 7.75727 158.367 8.28418C158.314 8.81109 158.076 9.3038 157.695 9.67873C157.477 9.89741 157.215 10.0701 156.927 10.186C156.638 10.3019 156.328 10.3586 156.016 10.3527Z" fill="#F28E0A"/>
<path d="M163.732 10.8144C163.411 10.8122 163.092 10.8658 162.789 10.9728C162.406 11.1129 162.064 11.3445 161.795 11.6467C161.276 12.2392 161.005 13.0025 161.037 13.7829C161.002 14.5596 161.274 15.3195 161.795 15.9057C162.037 16.1734 162.335 16.3856 162.67 16.5274C163.005 16.6692 163.367 16.7371 163.732 16.7262C163.935 16.7269 164.138 16.7066 164.337 16.6655C164.854 16.5612 165.321 16.2944 165.669 15.9057C166.19 15.3195 166.461 14.5596 166.427 13.7829C166.46 13.0024 166.189 12.2389 165.669 11.6467C165.428 11.3765 165.13 11.1618 164.796 11.0179C164.461 10.874 164.097 10.8045 163.732 10.8144Z" fill="#F28E0A"/>
</svg>
