<svg width="20" height="21" viewBox="0 0 20 21" fill="#E95454" xmlns="http://www.w3.org/2000/svg">
<path d="M8.41668 17.2502C10.2656 17.2498 12.0613 16.6308 13.5177 15.4918L18.0969 20.071L19.5698 18.5981L14.9906 14.0189C16.1302 12.5623 16.7496 10.7662 16.75 8.91683C16.75 4.32204 13.0115 0.583496 8.41668 0.583496C3.82189 0.583496 0.0833435 4.32204 0.0833435 8.91683C0.0833435 13.5116 3.82189 17.2502 8.41668 17.2502ZM8.41668 2.66683C11.8636 2.66683 14.6667 5.46995 14.6667 8.91683C14.6667 12.3637 11.8636 15.1668 8.41668 15.1668C4.9698 15.1668 2.16668 12.3637 2.16668 8.91683C2.16668 5.46995 4.9698 2.66683 8.41668 2.66683Z" fill="#E95454"/>
</svg>
